<?xml version="1.0" ?><!-- Uploaded to: SVG Repo, www.svgrepo.com, Generator: SVG Repo Mixer Tools -->
<svg width="800px" height="800px" viewBox="0 0 64 64" xmlns="http://www.w3.org/2000/svg"><defs><style>.a{fill:none;stroke:#000000;stroke-linejoin:round;stroke-width:2px;}</style></defs><title/><path class="a" d="M17,16H47V53.25A5.75,5.75,0,0,1,41.25,59H21.75A5.75,5.75,0,0,1,16,53.25V33.5"/><path class="a" d="M47,21h5.06A4.94,4.94,0,0,1,57,25.94V46.06A4.94,4.94,0,0,1,52.06,51H47a0,0,0,0,1,0,0V21A0,0,0,0,1,47,21Z"/><line class="a" x1="20" x2="47" y1="24" y2="24"/><path class="a" d="M46.74,16H47A5,5,0,0,0,47,6a5,5,0,0,0-2.24.55,5,5,0,0,0-8.4-2,5,5,0,0,0-8.72,0,5,5,0,0,0-8.4,2A5,5,0,0,0,17,6a5,5,0,0,0-5,5"/><path class="a" d="M20,16.25V29a4,4,0,0,1-4,4h0a4,4,0,0,1-4-4V11"/></svg>